<svg width="32" height="32" viewBox="0 0 32 32" fill="none" xmlns="http://www.w3.org/2000/svg">
<g clip-path="url(#clip0_258_25)">
<path d="M30.828 6.83L27.85 9.808L22.106 4.24L25.172 1.174C26.732 -0.388 29.266 -0.388 30.828 1.174C32.39 2.734 32.39 5.266 30.828 6.83ZM26.106 11.55L13.796 23.83L6 26L8.138 18.174L20.38 5.964L26.106 11.55V11.55ZM30.828 6.83L27.85 9.808L22.106 4.24L25.172 1.174C26.732 -0.388 29.266 -0.388 30.828 1.174C32.39 2.734 32.39 5.266 30.828 6.83ZM26.106 11.55L13.796 23.83L6 26L8.136 18.174L20.378 5.964L26.106 11.55V11.55ZM28 15.312L32 11.314V26C32 29.314 29.314 32 26 32H6C2.686 32 0 29.314 0 26V6C0 2.686 2.686 0 6 0H20.684L16.676 4H6C4.896 4 4 4.896 4 6V26C4 27.106 4.896 28 6 28H26C27.106 28 28 27.106 28 26V15.312Z" fill="#1C62CD"/>
</g>
<defs>
<clipPath id="clip0_258_25">
<rect width="32" height="32" fill="#1C62CD"/>
</clipPath>
</defs>
</svg>
