<?xml version="1.0" standalone="no"?>
<!DOCTYPE svg PUBLIC "-//W3C//DTD SVG 20010904//EN"
 "http://www.w3.org/TR/2001/REC-SVG-20010904/DTD/svg10.dtd">
<svg version="1.0" xmlns="http://www.w3.org/2000/svg"
 width="200.000000pt" height="200.000000pt" viewBox="0 0 200.000000 200.000000"
 preserveAspectRatio="xMidYMid meet">

<g transform="translate(0.000000,200.000000) scale(0.100000,-0.100000)"
fill="#000000" stroke="none">
<path d="M1294 1904 c-41 -20 -67 -68 -66 -121 0 -35 -3 -43 -18 -43 -24 0
-66 -35 -73 -60 -4 -15 0 -20 16 -20 38 -1 101 -36 139 -78 36 -40 68 -120 68
-169 0 -68 -51 -122 -136 -144 -41 -11 -42 -12 -46 -61 -3 -29 -14 -61 -27
-79 l-22 -29 24 0 c37 0 171 37 214 58 132 68 166 221 83 372 -85 155 -101
197 -102 262 -1 35 2 78 6 96 6 27 5 32 -11 32 -10 0 -32 -7 -49 -16z"/>
<path d="M671 1878 c25 -89 5 -177 -68 -299 -64 -107 -76 -145 -71 -229 3 -53
9 -76 31 -109 48 -72 152 -125 274 -138 l52 -6 -25 48 c-13 27 -24 63 -24 82
0 25 -4 33 -18 33 -34 0 -122 52 -137 81 -17 33 -20 115 -4 156 29 78 100 142
177 158 17 4 32 11 32 17 0 18 -58 68 -80 68 -17 0 -20 4 -15 21 20 62 -38
149 -100 149 -33 0 -33 0 -24 -32z"/>
<path d="M1000 1444 c0 -73 24 -70 28 4 2 42 0 52 -12 52 -13 0 -16 -12 -16
-56z"/>
<path d="M905 1480 c-91 -19 -215 -79 -215 -103 1 -33 62 -78 126 -91 27 -6
33 -3 55 31 14 23 41 46 67 58 41 20 42 21 40 65 -3 50 -9 53 -73 40z"/>
<path d="M1050 1442 c0 -46 2 -51 30 -62 30 -12 84 -66 92 -91 3 -10 13 -10
52 1 54 15 109 61 104 87 -6 33 -132 89 -240 108 l-38 6 0 -49z"/>
<path d="M962 1368 c-18 -6 -46 -26 -62 -44 -56 -64 -49 -156 15 -213 46 -40
93 -48 151 -26 83 32 118 126 78 211 -29 60 -114 94 -182 72z m71 -154 c-3 -8
-12 -14 -19 -14 -20 0 -30 30 -13 40 17 11 40 -7 32 -26z"/>
<path d="M346 1149 c-42 -61 -76 -115 -76 -120 0 -5 15 -9 33 -9 48 0 131 -43
161 -83 39 -51 63 -121 72 -206 l7 -74 64 159 c53 132 63 166 58 197 -8 57
-48 128 -95 171 -40 36 -111 75 -136 76 -6 0 -46 -50 -88 -111z m120 -20 c3
-6 0 -17 -7 -25 -18 -17 -44 -2 -36 20 7 18 33 21 43 5z"/>
<path d="M1541 1244 c-89 -38 -163 -129 -180 -218 -8 -43 -4 -57 58 -214 l66
-167 6 85 c7 97 33 167 82 219 40 42 100 70 150 71 20 0 37 3 37 8 -2 17 -157
227 -170 229 -8 1 -30 -4 -49 -13z m59 -123 c0 -19 -23 -35 -34 -24 -14 15 -5
43 14 43 13 0 20 -7 20 -19z"/>
<path d="M653 1113 c9 -17 21 -51 28 -76 11 -45 12 -46 63 -57 99 -21 263 -30
374 -21 129 12 212 29 216 44 4 17 32 99 40 119 7 14 -1 13 -61 -7 -37 -13
-102 -28 -143 -34 -41 -6 -94 -16 -118 -23 -33 -10 -51 -10 -85 0 -23 7 -75
17 -116 23 -66 9 -134 28 -195 54 -17 7 -17 6 -3 -22z"/>
<path d="M683 954 c-8 -22 3 -29 77 -49 85 -22 324 -31 416 -16 86 15 174 39
174 49 -1 28 -17 31 -100 16 -115 -21 -369 -21 -475 0 -44 9 -81 16 -83 16 -1
0 -5 -7 -9 -16z"/>
<path d="M430 904 c-6 -14 -10 -28 -10 -31 0 -2 -9 -16 -20 -30 -11 -14 -20
-34 -20 -43 0 -10 -6 -23 -14 -29 -8 -7 -18 -25 -21 -41 -3 -16 -13 -34 -20
-40 -8 -6 -22 -33 -32 -58 -9 -26 -25 -52 -34 -59 -15 -11 -33 -53 -23 -53 2
0 37 9 76 20 40 11 81 20 91 20 10 0 39 14 63 32 53 38 60 66 45 168 -10 62
-52 170 -66 170 -3 0 -10 -12 -15 -26z"/>
<path d="M1551 888 c-30 -64 -42 -126 -39 -197 3 -59 5 -66 38 -92 24 -19 67
-36 135 -54 55 -14 101 -25 103 -25 9 0 -12 47 -28 60 -10 8 -23 33 -30 55 -7
22 -21 48 -31 58 -11 10 -19 26 -19 36 0 10 -9 28 -20 41 -11 13 -20 31 -20
40 0 10 -7 23 -15 30 -8 7 -20 30 -27 51 -6 22 -15 39 -19 39 -4 0 -16 -19
-28 -42z"/>
<path d="M637 778 c-9 -7 -30 -53 -47 -101 -27 -77 -29 -93 -20 -128 7 -24 21
-45 38 -56 64 -39 92 -76 113 -148 25 -86 76 -165 131 -205 50 -36 57 -37 51
-6 -13 64 63 135 131 122 53 -10 105 -83 91 -127 -9 -29 8 -23 62 19 51 41
105 128 118 192 11 56 52 117 94 141 70 39 78 96 31 218 -27 68 -43 91 -67 91
-3 0 -3 -7 0 -15 3 -7 -2 -24 -11 -35 l-18 -22 -53 36 c-67 45 -124 49 -169
11 -24 -20 -31 -22 -36 -10 -8 21 -114 21 -122 0 -5 -12 -12 -10 -36 10 -45
38 -98 34 -172 -12 -56 -34 -60 -35 -73 -18 -7 11 -11 27 -7 37 6 21 -5 23
-29 6z m248 -61 c-79 -58 -113 -106 -171 -243 -9 -21 -9 -21 -47 6 l-37 28 33
21 c18 11 55 47 82 80 53 67 130 131 154 130 11 0 6 -7 -14 -22z m302 -10 c23
-17 65 -60 94 -95 29 -34 68 -72 87 -84 l33 -21 -42 -24 c-23 -13 -43 -22 -44
-21 -1 2 -10 27 -19 55 -22 66 -92 163 -140 192 -20 13 -36 25 -36 27 0 12 30
0 67 -29z m-234 -74 l19 -32 -34 11 c-41 13 -63 33 -53 48 12 20 48 6 68 -27z
m187 18 c0 -13 -11 -23 -36 -31 -45 -15 -50 -10 -23 23 24 32 59 36 59 8z
m-120 -121 c0 -27 -4 -50 -10 -50 -5 0 -10 23 -10 50 0 28 5 50 10 50 6 0 10
-22 10 -50z m211 -106 c4 -10 8 -36 8 -57 1 -42 -15 -55 -48 -37 -31 16 -236
24 -306 11 -100 -18 -98 -18 -109 11 -7 21 -6 36 6 60 l15 33 213 -1 c201 0
214 -1 221 -20z"/>
<path d="M806 414 c-3 -9 -6 -29 -6 -46 0 -25 3 -29 18 -23 97 41 241 47 342
16 69 -22 80 -15 62 36 -10 32 -15 33 -125 9 -79 -17 -165 -12 -232 14 -37 14
-52 12 -59 -6z"/>
<path d="M418 544 c-43 -7 -108 -24 -145 -36 l-68 -23 -42 -85 c-23 -46 -41
-85 -40 -86 1 -1 34 8 72 21 71 24 196 45 265 45 l38 0 17 73 c9 39 19 80 22
90 5 21 -10 21 -119 1z"/>
<path d="M1491 543 c0 -10 8 -49 17 -88 l17 -70 100 -11 c101 -12 214 -37 248
-56 10 -5 21 -7 24 -5 2 3 -12 41 -33 86 -36 78 -38 81 -89 100 -47 18 -137
38 -247 56 -32 5 -38 3 -37 -12z"/>
<path d="M962 214 c-55 -38 -48 -119 13 -148 30 -15 38 -15 69 -2 63 26 75 89
27 137 -33 33 -74 38 -109 13z"/>
</g>
</svg>
