<svg id="Слой_1" data-name="Слой 1" xmlns="http://www.w3.org/2000/svg" viewBox="0 0 205.39 264.12"><title>logo-icon1</title><path d="M72.39,7.46c.8,8.3-1.4,16.1-7.1,24.9-4.8,7.6-6.6,12.9-6.6,20.2-.1,13,8.7,20.9,26.8,24.2,3.2.6,5.9,1,6.1.8a14.93,14.93,0,0,0-1.7-4.2,19.62,19.62,0,0,1-2-7.2c0-3.1-.3-3.3-5.5-4.8-5.9-1.8-9.9-5.5-11-10.3-.7-3.2.8-11,3-15.2s8.2-8.9,13.1-10.2c2.4-.7,4.4-1.6,4.4-2.1,0-2.2-2.3-4.6-5.5-5.7s-3.4-1.4-2.9-3.9c.6-2.9-1.7-9.1-4-11a12,12,0,0,0-4.6-1.7l-3.2-.7Z" transform="translate(0 -0.56)"/><path d="M129.29,2.36c-3.1,2.1-5.7,8.1-4.9,11.5.6,2.5.3,2.9-2.4,3.5-3,.6-6.1,3.8-6.1,6.1,0,.6,1.7,1.4,3.8,1.7,8.4,1.4,15.7,10.3,16.8,20.6.9,8-4.2,14.2-12.9,16-2.9.6-3.2,1.1-3.7,5.2a21.48,21.48,0,0,1-2.4,7.4l-1.8,2.8,6.2-.6c7.9-.7,19.9-6.4,23.5-11.1,6.2-8.2,5.6-18.8-2.1-32.2a101.24,101.24,0,0,1-6-11.9c-1.5-4-2.1-17.6-.9-19.5C137.39.26,131.59.66,129.29,2.36Z" transform="translate(0 -0.56)"/><path d="M102.89,45c0,3.2.4,4.9,1.1,4.7a1.36,1.36,0,0,0,1-1.1c-.1-.4-.1-2.5-.1-4.7s-.4-4-1-4S102.89,42.16,102.89,45Z" transform="translate(0 -0.56)"/><path d="M92.29,42.36c-7.5,1.6-18.4,7-18.4,9.1,0,2.4,5,6.3,9.9,7.8l4.6,1.3,2.2-3.6a17.24,17.24,0,0,1,5.7-5.4c3.3-1.5,3.6-2,3.6-6.2,0-2.5-.3-4.5-.7-4.4S95.69,41.66,92.29,42.36Z" transform="translate(0 -0.56)"/><path d="M107.89,45.46c0,3.9.3,4.5,3.5,6a16,16,0,0,1,5.6,5.1c2,3.2,2.5,3.5,5.7,2.9,4.6-.7,11.2-5.1,11.2-7.5,0-3.3-11.1-8.7-20.7-10l-5.3-.8Z" transform="translate(0 -0.56)"/><path d="M96.19,54a13.89,13.89,0,0,0-6,13.6c1.1,9.8,11.8,15.2,20.7,10.5,6.2-3.3,8.9-12.6,5.5-19.2S102.69,49.76,96.19,54Zm9.5,12.2c.2,1.2-.3,1.7-1.7,1.7-1.2,0-2.1-.6-2.1-1.3C101.89,63.46,105.09,63.16,105.69,66.16Z" transform="translate(0 -0.56)"/><path d="M40.89,73.06c-3.8,5.6-7,10.5-7,11s1.4.8,3,.8c11.3,0,20.6,11.4,21.7,26.7.7,9,.6,9.1,8.1-9.8,5.5-13.8,5.7-16.2,1.4-24.5-3.3-6.4-13.6-14.4-18.6-14.4C48.69,62.86,44.79,67.46,40.89,73.06Zm11.8,2.5c.5,1.7-2.6,2.9-4,1.5a1.82,1.82,0,0,1-.3-2.2C49.29,73.46,52.09,74,52.69,75.56Z" transform="translate(0 -0.56)"/><path d="M151.29,65.86c-8.4,4.8-14.3,13.5-14.4,21.1,0,2.1,2.4,9.7,5.7,18l5.7,14.4.8-7.5c1.5-14.8,9.6-25.2,20.7-26.7,2.3-.3,4.1-1,4.1-1.5s-3-5.3-6.7-10.8c-4.8-6.9-7.4-9.9-8.8-9.9C157.29,62.86,154.09,64.16,151.29,65.86Zm8.1,10c0,2.2-2.9,1.8-3.3-.3-.3-1.4.1-1.8,1.5-1.5A2.11,2.11,0,0,1,159.39,75.86Z" transform="translate(0 -0.56)"/><path d="M69.89,76a35.36,35.36,0,0,1,2.5,6.9c1.1,4.2,1.4,4.6,6.1,5.9,6.8,2,43.9,2,50.7,0,4.8-1.4,4.9-1.5,7.1-8.2,1.9-5.7,2-6.7.7-6.1a76.31,76.31,0,0,1-17.8,4.9,76.47,76.47,0,0,0-10.6,2.1c-4.1,1.1-5.5,1.1-9,0a50.83,50.83,0,0,0-9.9-2,85.61,85.61,0,0,1-19.2-5.1C68.79,73.66,68.79,73.76,69.89,76Z" transform="translate(0 -0.56)"/><path d="M72.89,91.56c0,1.6,1.2,2.4,6.1,3.8,13.7,3.8,35.9,3.8,49.8.1,6-1.7,7.4-2.6,6.3-4.3-.5-.8-2.6-.7-8.2.3a171.49,171.49,0,0,1-22,1.3c-13.1.1-19.1-.4-28.7-2.5C73.29,89.66,72.89,89.86,72.89,91.56Z" transform="translate(0 -0.56)"/><path d="M154.79,98.46c-2.3,4.9-4.7,19.8-3.6,22.7s8,6.6,16.1,8.7c4.4,1.1,8.3,2,8.8,2,1.5,0,.8-2.7-1.1-4.4a9.89,9.89,0,0,1-2.6-4.7,17,17,0,0,0-2.4-5.1,73.39,73.39,0,0,1-5-9c-1.8-3.7-3.6-7-4.1-7.3s-1.1-1.9-1.5-3.5C158.39,93.26,157.29,93.46,154.79,98.46Z" transform="translate(0 -0.56)"/><path d="M48.49,97.86a45.58,45.58,0,0,1-2.5,5,30.47,30.47,0,0,0-2.3,4.2c-6.1,12.5-10.1,19.8-11.3,20.8a4.8,4.8,0,0,0-1.5,3.1c0,1.6.4,1.7,2.6.9a74.21,74.21,0,0,1,9.3-2.5c4.4-1.1,8-2.6,10.4-4.6,3.5-2.9,3.7-3.3,3.7-9.3,0-7.1-2.1-15.3-4.9-18.7l-1.9-2.4Z" transform="translate(0 -0.56)"/><path d="M68.79,108.06c-2.1,1.7-6.9,14.5-6.9,18.3.1,4.2,1.8,6.9,6.7,10.4,4.6,3.4,6.5,6.3,8.3,13.1a34,34,0,0,0,8.4,14.8c3.7,4.1,8.8,7,8.5,5a10.18,10.18,0,0,1,2.6-8.6,10,10,0,0,1,12-2.8c3.7,1.6,5.6,4.3,6.4,9.4l.6,3.3,3.5-2.3c5.3-3.6,9.5-9.9,12.5-18.7,2.1-6.5,3.4-8.6,6.8-11.6,7.7-6.6,7.7-6.6,7.7-11.5,0-4.7-3-15.1-5.1-17.6-1.3-1.5-4.4-1.9-3.5-.5.3.5-.2,1.9-1.2,3.1-1.7,2.1-1.8,2.1-4.2.2-7.2-5.5-13.9-6.7-18.4-3.1-2,1.6-3,1.9-3.9,1-1.6-1.6-9.2-1.4-10.7.4-1,1.3-1.6,1.1-4.4-1-4.5-3.4-8.8-3.2-14.7.6-5.7,3.6-8.2,3.5-8.9-.4C70.49,107.16,70.19,107,68.79,108.06Zm60.1,14.6c4.7,4.8,9.4,9.2,10.4,9.8,1.8.9,1.6,1.2-1.8,3.2a20.44,20.44,0,0,1-4.5,2.2c-.5,0-1.4-1.9-2-4.3-1.7-5.8-7.7-14.5-12.8-18.3-2.3-1.8-3.9-3.5-3.6-3.8C115.69,110.36,120.29,114,128.89,122.66Zm-39.7-6c-5.5,4.9-9.6,10.3-10.8,14.3a42.16,42.16,0,0,1-2.2,5.2l-1.4,2.7-3.2-2.2c-1.8-1.3-3.4-2.4-3.7-2.6s.4-.8,1.5-1.4,6.3-5.6,11.6-11c5.6-5.7,10.4-9.8,11.5-9.8C93.89,111.86,93.09,113.06,89.19,116.66Zm6.7,2.2a8.62,8.62,0,0,1,3,3c.9,1.7.8,2-1.3,2-3.3,0-6.2-2.3-5.4-4.4C92.89,117.56,93.39,117.46,95.89,118.86Zm20,1c0,2.2-2.8,4-6.1,4-2.2,0-2.2-.1.6-3C113.69,117.36,115.89,117,115.89,119.86Zm-11,12c0,2.7-.4,5-1,5s-1-2.3-1-5,.5-5,1-5S104.89,129.06,104.89,131.86Zm-1,7.9a123.38,123.38,0,0,0,14.3-.8c4.6-.8,4.9-.7,6.3,2,1.7,3.3,1.8,8.1.3,9.6-.7.7-2.4.7-5.6-.3-6.1-1.8-24.6-1.8-30.7,0-4.5,1.4-4.7,1.4-6.2-.9-1.6-2.5-1.3-5.3,1.1-9.1,1.2-1.9,1.9-2,6.2-1.3A123.38,123.38,0,0,0,103.89,139.76Z" transform="translate(0 -0.56)"/><path d="M84.29,144.36c-.3,2-.4,3.8-.1,4.1s2.6-.2,5.1-1a29.84,29.84,0,0,1,7.9-1.6,11,11,0,0,0,4.7-1c1.2-.7.8-1-1.5-1a44.92,44.92,0,0,1-8.5-1.5C84.69,140.46,85.09,140.36,84.29,144.36Z" transform="translate(0 -0.56)"/><path d="M115.89,142.46a35.32,35.32,0,0,1-7.3,1.3c-4.2.1-2.2,2.1,2.1,2.1a31.71,31.71,0,0,1,7.7,1.5,30.39,30.39,0,0,0,4.8,1.5c.9,0,.9-4.2.1-6.4C122.59,140.66,122.09,140.66,115.89,142.46Z" transform="translate(0 -0.56)"/><path d="M52.39,129.56c-6.2.8-19.7,4.3-22.6,5.9-2.3,1.1-4,3.5-6.4,8.7-1.8,4-3.2,7.3-3,7.5s3.1-.6,6.5-1.8a80.85,80.85,0,0,1,14.4-3.1c15.8-2.1,14.1-1.2,15.5-7.7.7-3.1,1.5-6.7,1.8-8C59.09,128.76,58.89,128.66,52.39,129.56Z" transform="translate(0 -0.56)"/><path d="M149.19,130.06c.2.7,1,4,1.7,7.3,1.7,7.7,2.4,8.5,7.4,8.5,6,0,16.1,1.8,22.9,4.1,3.3,1.1,6.1,1.9,6.2,1.7.7-.7-5.9-14.3-7.3-15.4-3-2.2-14.5-5.1-27.1-6.9C149.69,129,148.79,129.06,149.19,130.06Z" transform="translate(0 -0.56)"/><path d="M100.39,161.06c-3.1,1.7-4.5,3.9-4.5,7.3,0,6.8,8.5,10.2,13.6,5.4C116.09,167.56,108.29,156.66,100.39,161.06Z" transform="translate(0 -0.56)"/><path d="M72.29,195.56c-3.6.7-6.8,4.9-6.8,9,0,4.6,4,8.3,9,8.3H78l-.3-4.8c-.2-3.4-.7-4.7-1.8-4.7-.8,0-1.6,1-1.8,2.3-.5,3-3.6,2.5-4-.6s1.5-5.2,4.9-5.2c2.2,0,2.9-.5,2.9-1.9s-2.5-3.7-3.3-3A11,11,0,0,1,72.29,195.56Z" transform="translate(0 -0.56)"/><path d="M133,196.26c-.7.9-1.1,4.2-.9,8.8l.3,7.3,6.3.3c5.6.3,6.2.1,6.2-1.7,0-1.6-.8-2-3.7-2.3-4.5-.4-5.8-2.8-1.4-2.8,1.6,0,3.3-.5,3.6-1,1.1-1.7-1.3-3.7-4-3.4-1.4.1-2.5-.2-2.5-.7s1.8-.9,4-.9c3.2,0,4-.4,4-1.9s-1-2-3.7-2.5C135.59,194.56,134.29,194.76,133,196.26Z" transform="translate(0 -0.56)"/><path d="M88,203c-1.7,4-3.1,7.8-3.1,8.5,0,2.2,3.8,1.6,4.5-.6.4-1.4,1.5-2,3.5-2s3.1.6,3.5,2c.7,2.2,3,2.7,4,.9.4-.6-.8-4.4-2.5-8.5C93.69,193.66,92.19,193.56,88,203Zm5.9-.1a1,1,0,0,1-1,1,1.08,1.08,0,0,1-1-1,1,1,0,0,1,1-1A.94.94,0,0,1,93.89,202.86Z" transform="translate(0 -0.56)"/><path d="M108.09,204.06c.3,7,.6,8.3,2.1,8.6s1.7-.4,1.7-4.2c0-2.5.5-4.6,1-4.6a.94.94,0,0,1,1,1c0,1.4,3.7,1.2,4.7-.3.5-.7,1,.5,1.3,3.3.4,3.7.9,4.5,2.5,4.5,1.8,0,2-.7,2-8,0-6.8-.3-8-1.7-8.3-1-.2-2.8.9-4.2,2.5l-2.4,2.8-2.2-2.8c-1.2-1.5-3-2.7-4.1-2.7C108,195.86,107.79,196.46,108.09,204.06Z" transform="translate(0 -0.56)"/><path d="M75.19,225.36c-8.6,3.7-6.2,16.5,3.1,16.5,1.9,0,3.8-.5,4.1-1,1-1.6-1.4-4-3.9-4s-4.6-1.7-4.6-3.6,3-4.4,5.5-4.4c2.9,0,4.1-1.6,2.5-3.5S79.29,223.56,75.19,225.36Z" transform="translate(0 -0.56)"/><path d="M106.49,224.56c-.3.4-.6,3.7-.6,7.4,0,7.9,1.4,9.9,6.6,9.9,5.6,0,7.6-2.8,7.2-10.3-.3-5.4-.5-6.2-2.3-6.2s-2,.8-2.3,5.7c-.3,5.4-.5,5.8-2.7,5.8-2.4,0-2.5-.3-2.5-5.9,0-4.1-.4-6-1.4-6.4A2.26,2.26,0,0,0,106.49,224.56Z" transform="translate(0 -0.56)"/><path d="M128.19,224.56c-.9.3-1.3,3.1-1.3,8.9v8.4h5.9c6.9,0,8.8-1.5,7.5-5.7a26.82,26.82,0,0,1-.5-6.5c.2-2.8-.2-3.9-1.8-4.7C136,223.86,130.39,223.56,128.19,224.56Zm7.7,5.3c0,.5-1.2,1-2.6,1s-2.3-.4-1.9-1,1.5-1,2.6-1S135.89,229.26,135.89,229.86Zm0,6c0,.5-1.2,1-2.6,1s-2.3-.4-1.9-1,1.5-1,2.6-1S135.89,235.26,135.89,235.86Z" transform="translate(0 -0.56)"/><path d="M89.59,229.46a60.21,60.21,0,0,0,0,8.5c.6,3.9.6,3.9,4.9,3.9,3.7,0,4.4-.3,4.4-2,0-1.3-.9-2.2-2.5-2.6-2.3-.6-2.5-1.1-2.5-6.5,0-5.1-.3-5.9-1.9-5.9S90.09,225.86,89.59,229.46Z" transform="translate(0 -0.56)"/><path d="M.89,261.86c-1,.6-1.2,1.2-.4,2s33,.9,103,.8c89.8-.3,101.9-.5,101.9-1.8s-12-1.5-101.5-1.7C41.39,261,1.79,261.26.89,261.86Z" transform="translate(0 -0.56)"/></svg>